<?xml version="1.0" encoding="utf-8"?>
<!-- Generator: Adobe Illustrator 25.2.1, SVG Export Plug-In . SVG Version: 6.00 Build 0)  -->
<svg version="1.1" id="Layer_1" xmlns="http://www.w3.org/2000/svg" xmlns:xlink="http://www.w3.org/1999/xlink" x="0px" y="0px"
	 viewBox="0 0 1524 1098" style="enable-background:new 0 0 1524 1098;" xml:space="preserve">
<image style="overflow:visible;enable-background:new    ;" width="1504" height="280" xlink:href="AFBC6123.png"  transform="matrix(1 0 0 1 10 11.383)">
</image>
<image style="overflow:visible;enable-background:new    ;" width="1500" height="208" xlink:href="AFBC6121.png"  transform="matrix(1 0 0 1 12 237.3404)">
</image>
<image style="overflow:visible;enable-background:new    ;" width="1506" height="141" xlink:href="AFBC6127.png"  transform="matrix(1 0 0 1 9 335.2128)">
</image>
<image style="overflow:visible;enable-background:new    ;" width="1504" height="320" xlink:href="AFBC6120.png"  transform="matrix(1.0007 0 0 1.0007 12 767.6702)">
</image>
<image style="overflow:visible;enable-background:new    ;" width="1381" height="381" xlink:href="AFBC612E.png"  transform="matrix(1 0 0 1 0 348.4893)">
</image>
<image style="overflow:visible;enable-background:new    ;" width="1505" height="308" xlink:href="AFBC612F.png"  transform="matrix(1 0 0 1 12 617.4042)">
</image>
<image style="overflow:visible;enable-background:new    ;" width="1503" height="222" xlink:href="AFBC6122.png"  transform="matrix(1 0 0 1 5.9043 571.9575)">
</image>
<image style="overflow:visible;enable-background:new    ;" width="1508" height="228" xlink:href="AFBC6125.png"  transform="matrix(1 0 0 1 8 501.4893)">
</image>
<image style="overflow:visible;enable-background:new    ;" width="1502" height="308" xlink:href="AFBC6126.png"  transform="matrix(1 0 0 1 11 360.1277)">
</image>
<image style="overflow:visible;enable-background:new    ;" width="1524" height="1098" xlink:href="663A0A10.png"  transform="matrix(1.004 0 0 1 0 0)">
</image>
<image style="overflow:visible;enable-background:new    ;" width="523" height="200" xlink:href="663A0A17.png"  transform="matrix(1 0 0 1 905.6064 725.4042)">
</image>
</svg>
